<svg xmlns="http://www.w3.org/2000/svg" width="27" height="23" viewBox="0 0 27 23">
  <defs>
    <style>
      .cls-1 {
        fill: #eee;
        fill-rule: evenodd;
      }
    </style>
  </defs>
  <path id="Github" class="cls-1" d="M1270.79,179.311a8.461,8.461,0,0,0,.44-2.744,7.794,7.794,0,0,0-.83-3.561,7.019,7.019,0,0,0-3.06.637,16.618,16.618,0,0,0-3.03,1.976,19.209,19.209,0,0,0-4.55-.522,21.435,21.435,0,0,0-5.01.571,17.769,17.769,0,0,0-3.06-2.017,7.023,7.023,0,0,0-3.09-.645,7.914,7.914,0,0,0-.82,3.561,8.926,8.926,0,0,0,.43,2.776,9.645,9.645,0,0,0-2.2,6.468,12.2,12.2,0,0,0,1,5.406,6.936,6.936,0,0,0,1.4,1.879,7.211,7.211,0,0,0,1.96,1.323,17.639,17.639,0,0,0,2.22.841,14.33,14.33,0,0,0,2.48.489c0.9,0.1,1.7.172,2.39,0.205s1.46,0.049,2.3.049c1,0,1.9-.025,2.71-0.073a23.666,23.666,0,0,0,2.78-.36,13.543,13.543,0,0,0,2.76-.776,8.677,8.677,0,0,0,2.29-1.4,6.557,6.557,0,0,0,1.71-2.173,12.417,12.417,0,0,0,.99-5.406A9.685,9.685,0,0,0,1270.79,179.311Zm-1.94,11.882a4.68,4.68,0,0,1-1.32,1.682,6.3,6.3,0,0,1-1.97.98,11.855,11.855,0,0,1-2.28.482,23.206,23.206,0,0,1-2.41.114h-2.73a23.407,23.407,0,0,1-2.42-.114,11.921,11.921,0,0,1-2.27-.482,6.233,6.233,0,0,1-1.98-.98,4.66,4.66,0,0,1-1.31-1.682,5.631,5.631,0,0,1-.52-2.507,5.079,5.079,0,0,1,1.12-3.332,3.714,3.714,0,0,1,3.03-1.372,30.993,30.993,0,0,1,3.17.343,18.182,18.182,0,0,0,5.09,0c1.67-.229,2.72-0.343,3.16-0.343a3.72,3.72,0,0,1,3.04,1.372,5.134,5.134,0,0,1,1.12,3.332A5.768,5.768,0,0,1,1268.85,191.193Zm-13.36-5.088a1.52,1.52,0,0,0-2.35,0,3.288,3.288,0,0,0-.7,1.241,4.586,4.586,0,0,0,0,2.679,3.159,3.159,0,0,0,.7,1.241,1.521,1.521,0,0,0,2.35,0,3.288,3.288,0,0,0,.7-1.241,4.586,4.586,0,0,0,0-2.679A3.288,3.288,0,0,0,1255.49,186.105Zm10.38,0a1.52,1.52,0,0,0-2.35,0,3.288,3.288,0,0,0-.7,1.241,4.586,4.586,0,0,0,0,2.679,3.288,3.288,0,0,0,.7,1.241,1.521,1.521,0,0,0,2.35,0,3.288,3.288,0,0,0,.7-1.241,4.586,4.586,0,0,0,0-2.679A3.288,3.288,0,0,0,1265.87,186.105Z" transform="translate(-1246 -173)"/>
</svg>
