<svg xmlns="http://www.w3.org/2000/svg" width="27" height="22" viewBox="0 0 27 22">
  <defs>
    <style>
      .cls-1 {
        fill: #eee;
        fill-rule: evenodd;
      }
    </style>
  </defs>
  <path id="Twitter" class="cls-1" d="M1405.26,174.4a11.23,11.23,0,0,1-3.52,1.35,5.535,5.535,0,0,0-9.58,3.8,5.87,5.87,0,0,0,.14,1.267,15.7,15.7,0,0,1-11.41-5.809,5.5,5.5,0,0,0-.75,2.794,5.571,5.571,0,0,0,2.46,4.627,5.519,5.519,0,0,1-2.51-.7v0.07a5.562,5.562,0,0,0,4.44,5.452,5.5,5.5,0,0,1-2.5.094,5.553,5.553,0,0,0,5.17,3.862,11.06,11.06,0,0,1-6.87,2.379,11.647,11.647,0,0,1-1.32-.076,15.628,15.628,0,0,0,8.48,2.5c10.19,0,15.76-8.472,15.76-15.818l-0.02-.721A11.084,11.084,0,0,0,1406,176.6a11,11,0,0,1-3.18.876A5.631,5.631,0,0,0,1405.26,174.4Z" transform="translate(-1379 -174)"/>
</svg>
