<svg xmlns="http://www.w3.org/2000/svg" width="27.97" height="24" viewBox="0 0 27.97 24">
  <defs>
    <style>
      .cls-1 {
        fill: #eee;
        fill-rule: evenodd;
      }
    </style>
  </defs>
  <path id="Vimeo" class="cls-1" d="M1339.87,177.466a4.023,4.023,0,0,0-.52-3.269c-1.01-1.271-3.16-1.318-4.63-1.094a9.7,9.7,0,0,0-6.63,6.216c2.44-.185,3.72.175,3.49,2.849a9.729,9.729,0,0,1-1.31,3.519c-0.73,1.355-2.1,4.015-3.9,2.1-1.63-1.726-1.5-5.026-1.88-7.224a28.548,28.548,0,0,0-.83-4.038c-0.35-1.091-1.15-2.406-2.13-2.691a4.4,4.4,0,0,0-3.13.621c-2.43,1.425-4.29,3.452-6.4,5.125h0c0.34,0.731.53,1.2,1.15,1.294,1.45,0.212,2.83-1.346,3.8.275a16.685,16.685,0,0,1,1.14,3.144c0.5,1.422.89,2.971,1.3,4.606,0.7,2.769,1.55,6.908,3.96,7.922,1.23,0.518,3.07-.175,4.01-0.727a22.347,22.347,0,0,0,6.19-5.848A39.948,39.948,0,0,0,1339.87,177.466Z" transform="translate(-1312 -173)"/>
</svg>
